<?xml version="1.0" encoding="UTF-8" standalone="no"?>
<svg
   xmlns:dc="http://purl.org/dc/elements/1.1/"
   xmlns:cc="http://creativecommons.org/ns#"
   xmlns:rdf="http://www.w3.org/1999/02/22-rdf-syntax-ns#"
   xmlns:svg="http://www.w3.org/2000/svg"
   xmlns="http://www.w3.org/2000/svg"
   xmlns:sodipodi="http://sodipodi.sourceforge.net/DTD/sodipodi-0.dtd"
   xmlns:inkscape="http://www.inkscape.org/namespaces/inkscape"
   inkscape:version="1.0 (4035a4fb49, 2020-05-01)"
   sodipodi:docname="bullseye-solid - white.svg"
   id="svg4"
   version="1.1"
   viewBox="0 0 496 512"
   role="img"
   class="svg-inline--fa fa-bullseye fa-w-16"
   data-icon="bullseye"
   data-prefix="fas"
   focusable="false"
   aria-hidden="true">
  <metadata
     id="metadata10">
    <rdf:RDF>
      <cc:Work
         rdf:about="">
        <dc:format>image/svg+xml</dc:format>
        <dc:type
           rdf:resource="http://purl.org/dc/dcmitype/StillImage" />
      </cc:Work>
    </rdf:RDF>
  </metadata>
  <defs
     id="defs8" />
  <sodipodi:namedview
     inkscape:current-layer="svg4"
     inkscape:window-maximized="1"
     inkscape:window-y="-8"
     inkscape:window-x="-8"
     inkscape:cy="256"
     inkscape:cx="248"
     inkscape:zoom="1.6601562"
     showgrid="false"
     id="namedview6"
     inkscape:window-height="1017"
     inkscape:window-width="1920"
     inkscape:pageshadow="2"
     inkscape:pageopacity="0"
     guidetolerance="10"
     gridtolerance="10"
     objecttolerance="10"
     borderopacity="1"
     bordercolor="#666666"
     pagecolor="#ffffff" />
  <path
     id="path2"
     d="M248 8C111.03 8 0 119.03 0 256s111.03 248 248 248 248-111.03 248-248S384.97 8 248 8zm0 432c-101.69 0-184-82.29-184-184 0-101.69 82.29-184 184-184 101.69 0 184 82.29 184 184 0 101.69-82.29 184-184 184zm0-312c-70.69 0-128 57.31-128 128s57.31 128 128 128 128-57.31 128-128-57.31-128-128-128zm0 192c-35.29 0-64-28.71-64-64s28.71-64 64-64 64 28.71 64 64-28.71 64-64 64z"
     fill="currentColor" />
  <path
     id="path12"
     d="M 231.13412,503.1895 C 194.31527,499.91022 165.24771,491.75836 135.04874,476.2428 66.418977,440.98237 18.330039,376.31699 4.4112775,300.57412 1.3959431,284.16532 0.7536534,276.33798 0.7536534,256 c 0,-24.57124 1.7241423,-39.14955 7.2074485,-60.94187 C 13.346965,173.65307 23.015532,150.04317 34.217047,130.94311 46.274345,110.38383 64.178598,88.340137 81.381581,72.874195 99.185935,56.867603 116.83958,44.80114 137.70076,34.379413 163.69328,21.394195 189.00752,13.845548 219.99059,9.8407701 233.00132,8.159042 264.63016,8.299265 277.88487,10.097438 c 30.50967,4.139035 54.73969,11.455546 80.41437,24.281975 11.47306,5.731655 17.64796,9.330138 28.24194,16.458243 54.95229,36.974398 93.00506,95.147434 105.04568,160.588224 3.01587,16.39128 3.65949,24.23078 3.65949,44.57412 0,20.34334 -0.64362,28.18284 -3.65949,44.57412 -5.01503,27.2567 -14.47165,53.23318 -28.39727,78.0047 -4.07152,7.2426 -14.45224,22.6509 -20.23679,30.03781 -37.27713,47.60322 -90.93095,80.06057 -150.37868,90.97007 -14.90265,2.73484 -23.41672,3.48674 -41.56236,3.67044 -9.44188,0.0956 -18.38682,0.0652 -19.87764,-0.0676 z m 31.62353,-63.5001 c 37.18706,-3.18031 71.06923,-16.49266 99.81938,-39.21918 7.95913,-6.29156 23.60163,-21.93406 29.89319,-29.89319 42.26419,-53.46624 51.63479,-125.9971 24.3747,-188.66644 -13.73758,-31.5819 -38.02448,-60.40206 -67.16906,-79.7065 -24.09515,-15.959852 -51.13933,-25.792764 -80.89468,-29.412255 -9.77864,-1.189484 -34.13068,-1.007995 -43.97177,0.327716 -42.57744,5.778962 -78.66744,23.71584 -108.18307,53.767429 -28.86442,29.38857 -45.820113,64.25269 -51.513939,105.92243 -1.495847,10.94719 -1.495847,35.43399 0,46.38118 4.734362,34.64798 17.419487,64.82309 38.417379,91.38644 6.29156,7.95913 21.93406,23.60163 29.89319,29.89319 36.48887,28.84386 83.60194,43.13033 129.33468,39.21918 z"
     style="fill:#ffffff;stroke-width:0.602353" />
  <path
     id="path14"
     d="m 234.77874,383.04999 c -29.50244,-3.32828 -55.91826,-16.03248 -76.86595,-36.96726 -19.19945,-19.18761 -31.05338,-42.08981 -35.86974,-69.30155 -1.99824,-11.2898 -1.99824,-30.27256 0,-41.56236 4.81365,-27.19647 16.62189,-50.01957 35.86974,-69.32944 37.48566,-37.60645 93.71883,-48.01803 142.23102,-26.33411 33.74654,15.08399 60.23158,45.50795 70.43119,80.90591 3.66825,12.73074 4.76792,20.92741 4.76792,35.53882 0,10.84482 -0.22536,14.22385 -1.38597,20.78118 -4.81592,27.20928 -16.66254,50.09884 -35.86974,69.30603 -19.14237,19.14238 -42.32709,31.16563 -69.00486,35.78491 -8.68132,1.50317 -26.1141,2.10176 -34.30361,1.17787 z m 20.75067,-63.26597 c 14.63927,-1.79399 27.51765,-8.05066 37.8608,-18.39381 25.11456,-25.11456 25.14235,-65.51344 0.0624,-90.75658 -8.27781,-8.3317 -18.1517,-13.89968 -30.34936,-17.11435 -4.97618,-1.31146 -7.0468,-1.51982 -15.10326,-1.51982 -10.38146,0 -16.35652,1.16066 -25.43825,4.94139 -14.07872,5.86099 -27.75991,19.54218 -33.6209,33.6209 -3.78073,9.08173 -4.94139,15.05679 -4.94139,25.43825 0,8.05646 0.20836,10.12708 1.51982,15.10326 3.21678,12.20569 8.67982,21.89089 17.08166,30.28337 7.96969,7.96081 17.06635,13.31745 27.79054,16.3647 8.91728,2.53381 16.2261,3.12481 25.13793,2.03269 z"
     style="fill:#ffffff;stroke-width:0.602353" />
</svg>
