<?xml version="1.0" encoding="UTF-8" standalone="no"?>
<svg
   xmlns:dc="http://purl.org/dc/elements/1.1/"
   xmlns:cc="http://creativecommons.org/ns#"
   xmlns:rdf="http://www.w3.org/1999/02/22-rdf-syntax-ns#"
   xmlns:svg="http://www.w3.org/2000/svg"
   xmlns="http://www.w3.org/2000/svg"
   xmlns:sodipodi="http://sodipodi.sourceforge.net/DTD/sodipodi-0.dtd"
   xmlns:inkscape="http://www.inkscape.org/namespaces/inkscape"
   inkscape:version="1.0 (4035a4fb49, 2020-05-01)"
   sodipodi:docname="cogs-solid - white.svg"
   id="svg4"
   version="1.1"
   viewBox="0 0 640 512"
   role="img"
   class="svg-inline--fa fa-cogs fa-w-20"
   data-icon="cogs"
   data-prefix="fas"
   focusable="false"
   aria-hidden="true">
  <metadata
     id="metadata10">
    <rdf:RDF>
      <cc:Work
         rdf:about="">
        <dc:format>image/svg+xml</dc:format>
        <dc:type
           rdf:resource="http://purl.org/dc/dcmitype/StillImage" />
      </cc:Work>
    </rdf:RDF>
  </metadata>
  <defs
     id="defs8" />
  <sodipodi:namedview
     inkscape:current-layer="svg4"
     inkscape:window-maximized="1"
     inkscape:window-y="-8"
     inkscape:window-x="-8"
     inkscape:cy="256"
     inkscape:cx="320"
     inkscape:zoom="1.6390625"
     showgrid="false"
     id="namedview6"
     inkscape:window-height="1017"
     inkscape:window-width="1920"
     inkscape:pageshadow="2"
     inkscape:pageopacity="0"
     guidetolerance="10"
     gridtolerance="10"
     objecttolerance="10"
     borderopacity="1"
     bordercolor="#666666"
     pagecolor="#ffffff" />
  <path
     id="path2"
     d="M512.1 191l-8.2 14.3c-3 5.3-9.4 7.5-15.1 5.4-11.8-4.4-22.6-10.7-32.1-18.6-4.6-3.8-5.8-10.5-2.8-15.7l8.2-14.3c-6.9-8-12.3-17.3-15.9-27.4h-16.5c-6 0-11.2-4.3-12.2-10.3-2-12-2.1-24.6 0-37.1 1-6 6.2-10.4 12.2-10.4h16.5c3.6-10.1 9-19.4 15.9-27.4l-8.2-14.3c-3-5.2-1.9-11.9 2.8-15.7 9.5-7.9 20.4-14.2 32.1-18.6 5.7-2.1 12.1.1 15.1 5.4l8.2 14.3c10.5-1.9 21.2-1.9 31.7 0L552 6.3c3-5.3 9.4-7.5 15.1-5.4 11.8 4.4 22.6 10.7 32.1 18.6 4.6 3.8 5.8 10.5 2.8 15.7l-8.2 14.3c6.9 8 12.3 17.3 15.9 27.4h16.5c6 0 11.2 4.3 12.2 10.3 2 12 2.1 24.6 0 37.1-1 6-6.2 10.4-12.2 10.4h-16.5c-3.6 10.1-9 19.4-15.9 27.4l8.2 14.3c3 5.2 1.9 11.9-2.8 15.7-9.5 7.9-20.4 14.2-32.1 18.6-5.7 2.1-12.1-.1-15.1-5.4l-8.2-14.3c-10.4 1.9-21.2 1.9-31.7 0zm-10.5-58.8c38.5 29.6 82.4-14.3 52.8-52.8-38.5-29.7-82.4 14.3-52.8 52.8zM386.3 286.1l33.7 16.8c10.1 5.8 14.5 18.1 10.5 29.1-8.9 24.2-26.4 46.4-42.6 65.8-7.4 8.9-20.2 11.1-30.3 5.3l-29.1-16.8c-16 13.7-34.6 24.6-54.9 31.7v33.6c0 11.6-8.3 21.6-19.7 23.6-24.6 4.2-50.4 4.4-75.9 0-11.5-2-20-11.9-20-23.6V418c-20.3-7.2-38.9-18-54.9-31.7L74 403c-10 5.8-22.9 3.6-30.3-5.3-16.2-19.4-33.3-41.6-42.2-65.7-4-10.9.4-23.2 10.5-29.1l33.3-16.8c-3.9-20.9-3.9-42.4 0-63.4L12 205.8c-10.1-5.8-14.6-18.1-10.5-29 8.9-24.2 26-46.4 42.2-65.8 7.4-8.9 20.2-11.1 30.3-5.3l29.1 16.8c16-13.7 34.6-24.6 54.9-31.7V57.1c0-11.5 8.2-21.5 19.6-23.5 24.6-4.2 50.5-4.4 76-.1 11.5 2 20 11.9 20 23.6v33.6c20.3 7.2 38.9 18 54.9 31.7l29.1-16.8c10-5.8 22.9-3.6 30.3 5.3 16.2 19.4 33.2 41.6 42.1 65.8 4 10.9.1 23.2-10 29.1l-33.7 16.8c3.9 21 3.9 42.5 0 63.5zm-117.6 21.1c59.2-77-28.7-164.9-105.7-105.7-59.2 77 28.7 164.9 105.7 105.7zm243.4 182.7l-8.2 14.3c-3 5.3-9.4 7.5-15.1 5.4-11.8-4.4-22.6-10.7-32.1-18.6-4.6-3.8-5.8-10.5-2.8-15.7l8.2-14.3c-6.9-8-12.3-17.3-15.9-27.4h-16.5c-6 0-11.2-4.3-12.2-10.3-2-12-2.1-24.6 0-37.1 1-6 6.2-10.4 12.2-10.4h16.5c3.6-10.1 9-19.4 15.9-27.4l-8.2-14.3c-3-5.2-1.9-11.9 2.8-15.7 9.5-7.9 20.4-14.2 32.1-18.6 5.7-2.1 12.1.1 15.1 5.4l8.2 14.3c10.5-1.9 21.2-1.9 31.7 0l8.2-14.3c3-5.3 9.4-7.5 15.1-5.4 11.8 4.4 22.6 10.7 32.1 18.6 4.6 3.8 5.8 10.5 2.8 15.7l-8.2 14.3c6.9 8 12.3 17.3 15.9 27.4h16.5c6 0 11.2 4.3 12.2 10.3 2 12 2.1 24.6 0 37.1-1 6-6.2 10.4-12.2 10.4h-16.5c-3.6 10.1-9 19.4-15.9 27.4l8.2 14.3c3 5.2 1.9 11.9-2.8 15.7-9.5 7.9-20.4 14.2-32.1 18.6-5.7 2.1-12.1-.1-15.1-5.4l-8.2-14.3c-10.4 1.9-21.2 1.9-31.7 0zM501.6 431c38.5 29.6 82.4-14.3 52.8-52.8-38.5-29.6-82.4 14.3-52.8 52.8z"
     fill="currentColor" />
  <path
     id="path12"
     d="m 197.67398,477.3917 c -11.68672,-0.99366 -22.07085,-2.84476 -25.76683,-4.59323 -4.66777,-2.20821 -8.93582,-6.59852 -11.33174,-11.65635 l -1.94815,-4.11257 -0.1835,-19.61098 -0.18352,-19.61099 -5.00237,-1.97173 c -16.17257,-6.37455 -32.01977,-15.46646 -44.6592,-25.62203 -2.34891,-1.8873 -4.59125,-3.6204 -4.98298,-3.85134 -0.39221,-0.23121 -6.697287,3.03716 -14.032413,7.274 -17.068001,9.85866 -19.286196,10.96109 -23.868834,11.86267 -2.981015,0.58648 -4.601776,0.58691 -7.601955,0.002 C 51.77754,404.26594 47.700193,401.66135 42.448078,395.4946 22.744648,372.36007 7.3837258,348.12496 1.7899546,331.34795 0.45380771,327.34054 0.2212976,325.75732 0.49065304,322.50067 0.98460138,316.52859 2.9189883,312.06066 6.8480128,307.81685 10.029782,304.38016 11.317981,303.61383 27.917015,295.28326 l 17.680025,-8.87308 -0.376569,-2.24036 c -2.601471,-15.4772 -3.10936,-35.9266 -1.245138,-50.1336 0.594424,-4.53002 1.101393,-9.03685 1.126599,-10.01517 0.04442,-1.72421 -0.47285,-2.04344 -16.872454,-10.41245 C 18.924422,208.86007 10.195145,204.07802 8.8310836,202.98183 5.5459203,200.34181 2.4586199,195.52742 1.1832567,191.05569 -0.89140224,183.78144 0.71879779,177.47317 8.6129083,161.9486 15.354854,148.68989 24.174065,135.70877 38.242534,118.33637 c 7.17592,-8.86115 9.914059,-11.42915 14.458317,-13.55991 2.950501,-1.38346 4.237301,-1.60773 9.224792,-1.60773 7.048627,0 7.00157,-0.02 26.539562,11.27101 7.717826,4.46013 14.181685,8.19134 14.364115,8.29158 0.18245,0.10024 2.18723,-1.30568 4.45508,-3.12427 14.02223,-11.24441 30.5193,-20.826686 45.66213,-26.522723 l 5.30116,-1.994054 0.18979,-19.890227 0.18978,-19.890227 1.64478,-3.509716 c 2.10805,-4.498297 7.11247,-9.785723 11.1157,-11.74432 6.97526,-3.412678 26.82318,-5.449445 48.86012,-5.013957 30.1471,0.595758 41.07773,3.155987 47.4604,11.11642 5.00514,6.242381 4.97084,6.057813 5.31367,28.601369 l 0.30505,20.059902 7.01763,2.845825 c 14.5971,5.919494 31.3046,15.616168 42.52332,24.679598 2.75181,2.22315 5.32356,4.0421 5.71498,4.0421 0.39143,0 7.47455,-3.90835 15.74027,-8.68522 8.26572,-4.77687 16.40132,-9.16066 18.07911,-9.74176 6.48029,-2.24444 14.67666,-0.99979 20.69814,3.1431 4.06086,2.79395 19.35528,21.8394 28.19686,35.11228 8.39203,12.59803 15.58709,26.31262 18.52094,35.30303 2.74141,8.40067 0.93711,17.2219 -4.85447,23.73347 -2.26978,2.55196 -4.81673,4.02641 -20.86138,12.07686 -14.83033,7.44115 -18.21556,9.36616 -17.95557,10.21041 0.17621,0.57221 0.79663,4.47223 1.37871,8.6667 1.56005,11.2418 1.41244,35.26067 -0.28309,46.06292 -0.6847,4.36225 -1.20016,7.96686 -1.14548,8.01026 0.0547,0.0434 8.0613,4.07084 17.79247,8.9499 19.77117,9.91293 21.96591,11.52165 25.4929,18.68598 1.71302,3.47963 1.93797,4.53659 1.94917,9.15804 0.015,6.19197 -0.8047,8.94979 -5.72356,19.25683 -6.43659,13.4873 -15.39552,27.13017 -29.04644,44.2326 -11.58152,14.5098 -14.16931,16.73911 -21.65772,18.65755 -4.86365,1.24601 -9.9122,0.83287 -14.27939,-1.16854 -1.70661,-0.78211 -9.62657,-5.19617 -17.59992,-9.80902 l -14.49699,-8.387 -5.33142,4.21252 c -13.613,10.75607 -28.47983,19.34023 -44.20236,25.5226 l -5.92528,2.32992 -0.17577,19.8596 -0.17577,19.85959 -1.70736,3.66063 c -2.26371,4.85347 -6.94785,9.54044 -11.63839,11.64543 -8.87258,3.98177 -40.41962,6.2551 -61.69714,4.44598 z m 30.8553,-151.58489 c 11.46012,-1.92367 23.27918,-6.77747 34.53113,-14.1811 4.68379,-3.08186 6.14613,-4.45997 8.96942,-8.4528 23.4981,-33.23207 21.29729,-74.10819 -5.41622,-100.5974 -10.10623,-10.02137 -23.0324,-16.78969 -37.35153,-19.55778 -7.1297,-1.37827 -20.04896,-1.37854 -27.17699,-5.7e-4 -11.5287,2.2287 -23.71603,7.41932 -34.11416,14.52932 -4.49266,3.07198 -5.85009,4.42941 -8.92207,8.92207 -7.10999,10.39813 -12.30062,22.58546 -14.52931,34.11416 -1.37797,7.12803 -1.37771,20.04729 5.6e-4,27.17699 2.76809,14.31913 9.53641,27.24529 19.55779,37.35153 10.66095,10.75123 24.50857,18.07772 39.08702,20.68015 6.64187,1.18565 18.35046,1.19278 25.36436,0.0154 z"
     style="fill:#ffffff;stroke-width:0.610105" />
  <path
     id="path14"
     d="m 484.11821,507.28141 c -11.42857,-4.92537 -26.79509,-14.9091 -29.35513,-19.07222 -1.67222,-2.71934 -2.48354,-6.16162 -2.02649,-8.59794 0.21766,-1.16021 2.42572,-5.69094 4.90679,-10.06829 2.48108,-4.37736 4.51056,-8.15997 4.50996,-8.40581 -6e-4,-0.24583 -1.65493,-2.64335 -3.67629,-5.32781 -3.45037,-4.58226 -11.57524,-19.63492 -11.57524,-21.44505 0,-0.65328 -1.80806,-0.82378 -8.73578,-0.82378 -5.91653,0 -9.71215,-0.28994 -11.76116,-0.89844 -3.39769,-1.009 -6.4218,-3.74476 -7.7742,-7.03292 -1.57702,-3.83428 -2.44156,-14.56326 -2.02875,-25.17671 0.57984,-14.90772 1.70002,-18.74246 6.45757,-22.10642 2.57905,-1.82357 2.62687,-1.83143 13.00029,-2.13536 l 10.41173,-0.30505 1.92649,-4.57579 c 2.64595,-6.28467 5.96362,-12.07055 10.18924,-17.76965 1.96196,-2.64609 3.56719,-5.04403 3.56719,-5.32875 0,-0.28473 -2.04547,-4.05174 -4.5455,-8.37115 -2.50002,-4.31941 -4.71531,-8.85857 -4.92285,-10.08702 -0.50126,-2.96689 0.57683,-6.74219 2.61806,-9.16805 5.61155,-6.66894 28.71684,-19.99867 36.51857,-21.06802 3.56772,-0.48901 7.51126,1.06208 10.10227,3.97348 1.1119,1.24938 3.80619,5.48429 5.98732,9.41092 2.59116,4.6648 4.24655,7.03736 4.77601,6.84516 2.92101,-1.06033 15.93066,-1.62082 22.70124,-0.97803 4.03908,0.38347 7.62852,0.76247 7.97653,0.84223 0.34801,0.0798 2.77433,-3.56137 5.39183,-8.0914 5.26974,-9.1202 7.42416,-11.25347 12.06842,-11.94992 3.54723,-0.53194 7.02629,0.54267 15.97403,4.93407 11.81464,5.79842 22.91102,13.76953 25.07613,18.01351 0.75979,1.48931 1.21217,3.58722 1.21217,5.62147 0,2.93626 -0.46183,4.05382 -4.84795,11.73131 l -4.84794,8.48588 1.20933,1.56277 c 6.01395,7.77157 12.10902,18.24439 13.93586,23.94521 l 0.72069,2.24897 10.53703,0.19145 c 9.97381,0.18122 10.65159,0.27004 12.68022,1.66169 2.52818,1.73435 4.57828,4.55364 5.40891,7.43831 0.32835,1.14033 0.92333,5.87172 1.32216,10.51419 0.7496,8.72553 0.0667,22.90717 -1.3451,27.93215 -0.95251,3.39031 -3.12605,6.1808 -6.1219,7.8596 -2.53448,1.42026 -3.3991,1.53929 -12.55967,1.72899 l -9.83781,0.20372 -1.75291,4.3543 c -2.18849,5.43631 -7.23495,14.02931 -11.20847,19.08552 l -3.02586,3.85033 4.67078,8.11498 c 3.7646,6.5406 4.72234,8.72313 4.93658,11.24965 0.52046,6.13789 -1.30427,8.71336 -11.19155,15.79603 -5.51585,3.95124 -16.54422,9.93058 -23.00596,12.47332 -2.70202,1.06326 -4.3552,1.32159 -7.15937,1.11876 -5.31636,-0.38455 -7.23874,-2.17945 -12.81641,-11.96648 l -4.57578,-8.02905 -3.66063,0.44753 c -4.81491,0.58863 -20.37289,0.57357 -25.02434,-0.0242 l -3.67068,-0.47175 -4.72072,8.15825 c -2.5964,4.48704 -5.20008,8.57852 -5.78596,9.09218 -4.26682,3.74087 -9.19751,3.85222 -17.233,0.38916 z m 52.75388,-67.35517 c 13.15495,-3.42643 23.50456,-13.97868 26.60832,-27.12929 1.21313,-5.14005 0.95148,-12.92981 -0.62885,-18.72185 -1.6346,-5.99089 -5.8714,-13.76465 -9.02051,-16.551 -3.34789,-2.96221 -12.20275,-7.17988 -17.59053,-8.37854 -19.08868,-4.24683 -37.7494,6.79966 -43.33586,25.6533 -1.31548,4.43958 -1.48298,13.7842 -0.33356,18.60819 1.35487,5.6862 6.52538,15.51753 9.57086,18.19827 3.43694,3.02532 10.45765,6.58319 15.86543,8.0401 5.29843,1.42745 13.96707,1.55649 18.8647,0.28082 z"
     style="fill:#ffffff;stroke-width:0.610105" />
  <path
     id="path16"
     d="m 490.7776,210.79728 c -6.44353,-1.45599 -20.89607,-9.13955 -29.7731,-15.8286 -5.63051,-4.24271 -7.04037,-5.97559 -8.01688,-9.85367 -0.96092,-3.81616 -0.27481,-5.90559 4.87027,-14.83168 2.3631,-4.09969 4.29605,-7.69935 4.29545,-7.99926 -6e-4,-0.2999 -1.65493,-2.74165 -3.67629,-5.42611 -3.45037,-4.58226 -11.57524,-19.63493 -11.57524,-21.44505 0,-0.65425 -1.85197,-0.82448 -8.99905,-0.82718 -4.94947,-0.002 -10.0361,-0.29139 -11.30361,-0.64339 -3.01685,-0.83778 -6.47625,-3.9263 -7.81765,-6.97952 -1.7261,-3.92887 -2.59632,-14.05685 -2.1755,-25.31935 0.56216,-15.045168 1.67677,-18.891324 6.45349,-22.268827 2.57852,-1.823207 2.62892,-1.831499 12.98266,-2.135367 l 10.3941,-0.305053 2.24134,-5.204817 c 2.54432,-5.908359 6.86769,-13.263082 10.80244,-18.376582 1.47092,-1.911571 2.6744,-3.68926 2.6744,-3.950419 0,-0.261159 -2.03504,-4.057036 -4.52231,-8.435283 -2.48727,-4.378247 -4.706,-8.946286 -4.93051,-10.151196 -0.69844,-3.748408 0.66377,-7.223452 4.1691,-10.635486 7.88641,-7.676499 30.20426,-19.81437708 36.4326,-19.81437708 2.46422,0 5.99921,1.53742828 8.04874,3.50054018 0.9219,0.8830229 3.66737,5.1252474 6.10105,9.4271659 2.49098,4.403194 4.73313,7.70506 5.13018,7.554859 0.38792,-0.146746 4.02567,-0.587052 8.08389,-0.978456 5.64136,-0.544094 9.13465,-0.542278 14.83717,0.0077 4.10222,0.395648 7.65259,0.839269 7.88972,0.985825 0.23713,0.146555 1.9927,-2.414994 3.90126,-5.692332 6.50196,-11.1650354 6.83462,-11.5915017 10.40413,-13.3378986 4.35356,-2.12999838 6.84549,-1.83447883 14.86811,1.7632195 8.56096,3.8391185 15.50704,7.9003361 22.12696,12.9371411 6.68331,5.08503 8.36946,7.604705 8.3841,12.528604 0.009,3.087062 -0.3836,4.071522 -4.57433,11.465218 -2.52141,4.448503 -4.64915,8.321119 -4.72832,8.605814 -0.0792,0.284695 1.30083,2.428579 3.06666,4.764188 4.0596,5.369522 8.15932,12.534838 10.64981,18.613295 l 1.93729,4.728313 9.48914,0.01342 c 10.79119,0.01525 12.94702,0.602887 16.32477,4.44994 2.51271,2.861813 3.07537,5.031077 3.95934,15.264458 0.56677,6.561193 0.56559,10.365333 -0.005,17.082933 -0.96535,11.35967 -1.56271,13.47962 -4.6753,16.59221 -3.29743,3.29762 -6.0319,3.94689 -16.62257,3.94689 h -8.4428 l -2.16958,5.08865 c -2.68646,6.301 -7.23814,14.02412 -11.06926,18.78192 l -2.90499,3.60765 4.68269,8.07214 c 4.1688,7.18629 4.71265,8.48499 4.95565,11.8341 0.4606,6.34807 -2.01459,9.3133 -14.63517,17.53271 -6.30614,4.107 -19.21757,10.44289 -22.9642,11.26898 -3.63362,0.80117 -8.12825,-0.41287 -10.65682,-2.87852 -1.06707,-1.04052 -3.86197,-5.33376 -6.21087,-9.54054 l -4.27073,-7.64868 -3.35558,0.4632 c -4.28864,0.592 -21.22504,0.60146 -25.65742,0.0143 l -3.3886,-0.44887 -3.87054,6.85497 c -2.1288,3.77023 -4.53213,7.74977 -5.34074,8.84343 -2.54025,3.43573 -7.6238,5.31154 -11.82306,4.36267 z m 46.63672,-69.85402 c 17.13615,-4.42097 28.79869,-21.53724 26.67071,-39.14269 -1.26391,-10.456726 -6.51851,-20.836 -12.58795,-24.864669 -7.09082,-4.706624 -16.17572,-7.641679 -23.57813,-7.617397 -15.5891,0.05113 -30.13059,10.883972 -34.79229,25.918865 -1.57114,5.067241 -1.8163,13.991731 -0.52794,19.218301 2.08954,8.47676 6.94833,16.92783 11.4731,19.95557 3.83176,2.56401 10.01974,5.4042 14.21226,6.52321 4.55269,1.21516 14.43669,1.2197 19.13024,0.009 z"
     style="fill:#ffffff;stroke-width:0.610105" />
</svg>
