<?xml version="1.0" encoding="UTF-8" standalone="no"?>
<svg
   xmlns:dc="http://purl.org/dc/elements/1.1/"
   xmlns:cc="http://creativecommons.org/ns#"
   xmlns:rdf="http://www.w3.org/1999/02/22-rdf-syntax-ns#"
   xmlns:svg="http://www.w3.org/2000/svg"
   xmlns="http://www.w3.org/2000/svg"
   xmlns:sodipodi="http://sodipodi.sourceforge.net/DTD/sodipodi-0.dtd"
   xmlns:inkscape="http://www.inkscape.org/namespaces/inkscape"
   inkscape:version="1.0 (4035a4fb49, 2020-05-01)"
   sodipodi:docname="running-solid - white.svg"
   id="svg4"
   version="1.1"
   viewBox="0 0 416 512"
   role="img"
   class="svg-inline--fa fa-running fa-w-13"
   data-icon="running"
   data-prefix="fas"
   focusable="false"
   aria-hidden="true">
  <metadata
     id="metadata10">
    <rdf:RDF>
      <cc:Work
         rdf:about="">
        <dc:format>image/svg+xml</dc:format>
        <dc:type
           rdf:resource="http://purl.org/dc/dcmitype/StillImage" />
      </cc:Work>
    </rdf:RDF>
  </metadata>
  <defs
     id="defs8" />
  <sodipodi:namedview
     inkscape:current-layer="svg4"
     inkscape:window-maximized="1"
     inkscape:window-y="-8"
     inkscape:window-x="-8"
     inkscape:cy="256"
     inkscape:cx="208"
     inkscape:zoom="1.6601562"
     showgrid="false"
     id="namedview6"
     inkscape:window-height="1017"
     inkscape:window-width="1920"
     inkscape:pageshadow="2"
     inkscape:pageopacity="0"
     guidetolerance="10"
     gridtolerance="10"
     objecttolerance="10"
     borderopacity="1"
     bordercolor="#666666"
     pagecolor="#ffffff" />
  <path
     id="path2"
     d="M272 96c26.51 0 48-21.49 48-48S298.51 0 272 0s-48 21.49-48 48 21.49 48 48 48zM113.69 317.47l-14.8 34.52H32c-17.67 0-32 14.33-32 32s14.33 32 32 32h77.45c19.25 0 36.58-11.44 44.11-29.09l8.79-20.52-10.67-6.3c-17.32-10.23-30.06-25.37-37.99-42.61zM384 223.99h-44.03l-26.06-53.25c-12.5-25.55-35.45-44.23-61.78-50.94l-71.08-21.14c-28.3-6.8-57.77-.55-80.84 17.14l-39.67 30.41c-14.03 10.75-16.69 30.83-5.92 44.86s30.84 16.66 44.86 5.92l39.69-30.41c7.67-5.89 17.44-8 25.27-6.14l14.7 4.37-37.46 87.39c-12.62 29.48-1.31 64.01 26.3 80.31l84.98 50.17-27.47 87.73c-5.28 16.86 4.11 34.81 20.97 40.09 3.19 1 6.41 1.48 9.58 1.48 13.61 0 26.23-8.77 30.52-22.45l31.64-101.06c5.91-20.77-2.89-43.08-21.64-54.39l-61.24-36.14 31.31-78.28 20.27 41.43c8 16.34 24.92 26.89 43.11 26.89H384c17.67 0 32-14.33 32-32s-14.33-31.99-32-31.99z"
     fill="currentColor" />
  <path
     id="path12"
     d="m 246.55059,510.0268 c -11.20734,-3.83495 -18.71401,-12.12553 -21.42801,-23.66572 -1.80381,-7.66991 -1.62447,-8.41745 13.97123,-58.23888 7.85573,-25.09561 14.17027,-45.71366 14.03232,-45.81788 -0.13796,-0.10423 -20.00032,-11.82746 -44.13857,-26.05162 -28.3068,-16.6806 -45.61761,-27.25211 -48.76036,-29.77741 -20.04496,-16.10671 -28.37893,-44.70687 -20.0974,-68.96941 1.09797,-3.21677 38.29783,-90.76812 39.31403,-92.52716 0.11665,-0.20194 -3.23636,-1.41115 -7.45116,-2.68715 -11.898,-3.60201 -19.16854,-3.43096 -27.57738,0.6488 -1.67653,0.81341 -12.92547,9.06311 -24.99765,18.33266 -21.594355,16.58112 -26.507685,19.82699 -31.888228,21.06618 -3.88696,0.89521 -11.809954,0.7827 -15.582013,-0.22127 -10.743692,-2.85954 -19.8096,-12.04327 -22.64861,-22.94297 -2.644498,-10.15292 0.74191,-22.27021 8.276646,-29.61563 3.126161,-3.04762 38.763522,-30.58977 47.422215,-36.65001 4.71961,-3.30328 12.60782,-7.46433 19.27529,-10.16779 15.69125,-6.36231 36.62023,-8.117981 53.30824,-4.471869 5.57725,1.218558 81.82959,24.052249 86.41529,25.876979 16.32472,6.49589 32.8934,20.27898 43.19989,35.93697 3.34469,5.08136 8.71109,15.37738 18.51741,35.52758 l 13.80789,28.37272 25.04387,0.20604 25.04388,0.20605 4.27794,1.55535 c 11.05745,4.0202 18.68262,12.62763 21.01661,23.72393 1.11146,5.28416 1.11146,7.36526 0,12.64942 -2.82269,13.41969 -13.76915,23.36074 -27.58413,25.05059 -3.39264,0.41498 -15.84853,0.56033 -34.63366,0.40411 -27.94032,-0.23234 -29.56478,-0.30691 -34.15441,-1.56782 -10.04995,-2.76102 -19.33995,-8.7655 -25.8064,-16.67966 -2.12298,-2.59828 -6.11899,-10.05645 -14.43273,-26.93733 -6.32329,-12.83932 -11.67568,-23.13956 -11.89421,-22.88941 -0.21851,0.25015 -7.36527,17.91188 -15.88167,39.24831 -12.61915,31.61514 -15.33825,38.92936 -14.69468,39.52774 0.43433,0.40384 14.07158,8.53916 30.30499,18.07849 33.47152,19.66906 33.66267,19.79 38.47063,24.34025 9.69108,9.17163 14.8376,21.01034 14.8376,34.13143 0,3.40929 -0.30364,7.63511 -0.67475,9.39071 -1.22676,5.80329 -33.04361,106.72941 -34.71196,110.10964 -2.34854,4.75839 -9.13807,11.40414 -14.02298,13.72601 -5.14951,2.44764 -8.22803,3.1106 -14.43972,3.1096 -3.71518,-6e-4 -6.19427,-0.36842 -9.03529,-1.34057 z"
     style="fill:#ffffff;stroke-width:0.602353" />
  <path
     id="path14"
     d="M 24.356895,414.6843 C 8.6152168,410.39666 -1.8975226,394.53327 0.7495006,379.0615 c 0.989515,-5.78369 4.1091386,-12.10814 8.0096087,-16.23799 4.0131417,-4.24914 7.2107107,-6.4527 12.3546537,-8.51404 l 4.072119,-1.63182 37.018124,-0.30118 37.01813,-0.30118 7.181814,-16.73314 7.18182,-16.73315 2.80306,5.00033 c 4.58847,8.18531 9.03411,14.20357 15.41352,20.86598 6.88723,7.19273 12.47835,11.54295 22.66159,17.63203 3.93519,2.35305 7.15488,4.45857 7.15488,4.67894 0,0.64288 -8.13004,19.35864 -10.13241,23.3253 -4.34015,8.59779 -12.35861,16.32386 -21.49112,20.70746 -9.73643,4.67347 -6.73627,4.43237 -57.223525,4.59859 -38.127177,0.12552 -45.681788,0.0111 -48.41487,-0.73333 z"
     style="fill:#ffffff;stroke-width:0.602353" />
  <path
     id="path16"
     d="M 263.71765,94.910181 C 248.1198,91.809141 235.7961,82.379595 229.08898,68.413868 216.05585,41.275979 231.17153,9.4258435 260.70588,1.7941544 c 6.45552,-1.66810771 16.28078,-1.69893469 22.58824,-0.070871 15.9817,4.125156 28.5666,15.7462466 33.90225,31.3058726 1.51499,4.417948 1.83603,6.42776 2.08887,13.07694 0.25437,6.689289 0.10817,8.610383 -0.98395,12.929139 -4.29547,16.986266 -17.10498,30.209383 -33.82575,34.917952 -5.82344,1.639875 -15.15839,2.070239 -20.75789,0.956994 z"
     style="fill:#ffffff;stroke-width:0.602353" />
</svg>
