<?xml version="1.0" encoding="UTF-8" standalone="no"?>
<svg
   xmlns:dc="http://purl.org/dc/elements/1.1/"
   xmlns:cc="http://creativecommons.org/ns#"
   xmlns:rdf="http://www.w3.org/1999/02/22-rdf-syntax-ns#"
   xmlns:svg="http://www.w3.org/2000/svg"
   xmlns="http://www.w3.org/2000/svg"
   xmlns:sodipodi="http://sodipodi.sourceforge.net/DTD/sodipodi-0.dtd"
   xmlns:inkscape="http://www.inkscape.org/namespaces/inkscape"
   inkscape:version="1.0 (4035a4fb49, 2020-05-01)"
   sodipodi:docname="users-solid - white.svg"
   id="svg4"
   version="1.1"
   viewBox="0 0 640 512"
   role="img"
   class="svg-inline--fa fa-users fa-w-20"
   data-icon="users"
   data-prefix="fas"
   focusable="false"
   aria-hidden="true">
  <metadata
     id="metadata10">
    <rdf:RDF>
      <cc:Work
         rdf:about="">
        <dc:format>image/svg+xml</dc:format>
        <dc:type
           rdf:resource="http://purl.org/dc/dcmitype/StillImage" />
      </cc:Work>
    </rdf:RDF>
  </metadata>
  <defs
     id="defs8" />
  <sodipodi:namedview
     inkscape:current-layer="svg4"
     inkscape:window-maximized="1"
     inkscape:window-y="-8"
     inkscape:window-x="-8"
     inkscape:cy="256"
     inkscape:cx="320"
     inkscape:zoom="1.6390625"
     showgrid="false"
     id="namedview6"
     inkscape:window-height="1017"
     inkscape:window-width="1920"
     inkscape:pageshadow="2"
     inkscape:pageopacity="0"
     guidetolerance="10"
     gridtolerance="10"
     objecttolerance="10"
     borderopacity="1"
     bordercolor="#666666"
     pagecolor="#ffffff" />
  <path
     id="path2"
     d="M96 224c35.3 0 64-28.7 64-64s-28.7-64-64-64-64 28.7-64 64 28.7 64 64 64zm448 0c35.3 0 64-28.7 64-64s-28.7-64-64-64-64 28.7-64 64 28.7 64 64 64zm32 32h-64c-17.6 0-33.5 7.1-45.1 18.6 40.3 22.1 68.9 62 75.1 109.4h66c17.7 0 32-14.3 32-32v-32c0-35.3-28.7-64-64-64zm-256 0c61.9 0 112-50.1 112-112S381.9 32 320 32 208 82.1 208 144s50.1 112 112 112zm76.8 32h-8.3c-20.8 10-43.9 16-68.5 16s-47.6-6-68.5-16h-8.3C179.6 288 128 339.6 128 403.2V432c0 26.5 21.5 48 48 48h288c26.5 0 48-21.5 48-48v-28.8c0-63.6-51.6-115.2-115.2-115.2zm-223.7-13.4C161.5 263.1 145.6 256 128 256H64c-35.3 0-64 28.7-64 64v32c0 17.7 14.3 32 32 32h65.9c6.3-47.4 34.9-87.3 75.2-109.4z"
     fill="currentColor" />
  <path
     id="path12"
     d="m 169.6329,479.23467 c -17.035,-2.50443 -31.50459,-13.88555 -37.95412,-29.85297 -2.91786,-7.2239 -3.23011,-10.3713 -3.23611,-32.61907 -0.003,-11.40896 0.27691,-23.21449 0.62219,-26.23451 4.50368,-39.39236 28.93289,-73.6897 64.74136,-90.89349 15.70672,-7.54612 32.45714,-11.29907 50.43081,-11.29907 6.95731,0 7.44701,0.086 11.76856,2.06757 11.59289,5.31563 28.28847,10.22546 41.72558,12.27063 8.99491,1.36906 26.87611,1.8612 35.81502,0.98573 17.35355,-1.6996 34.08722,-5.99134 48.0744,-12.32982 5.5654,-2.52203 6.07514,-2.63576 12.8122,-2.85867 21.00348,-0.69493 43.90853,5.48396 62.2307,16.78744 30.17782,18.61756 50.25846,50.16756 54.27165,85.26968 1.02799,8.99143 0.82181,45.71844 -0.28622,50.98581 -1.84578,8.77452 -5.62875,16.02542 -11.81658,22.64909 -6.54456,7.00551 -13.82958,11.44923 -23.1037,14.09279 l -4.72769,1.34762 -148.86558,0.083 c -82.57342,0.046 -150.48515,-0.15515 -152.50247,-0.45172 z"
     style="fill:#ffffff;stroke-width:0.610105" />
  <path
     id="path14"
     d="M 23.910814,382.59628 C 15.836205,380.37651 7.6741906,373.80046 4.0414845,366.58777 0.63262914,359.81953 0.32377856,357.22648 0.31652387,335.31363 0.30940193,313.80177 0.83202727,308.21551 3.6156575,300.04972 11.948363,275.6057 33.29611,258.89607 59.112253,256.61058 c 8.687297,-0.76908 64.355607,-0.77476 73.612247,-0.008 13.98217,1.15894 26.75086,6.467 36.76877,15.28511 l 2.89654,2.54965 -5.05096,3.10132 c -19.25184,11.82076 -35.47743,27.56304 -47.62817,46.20948 -10.00517,15.35385 -17.97062,35.58403 -20.948857,53.20466 l -1.108536,6.55863 -35.404337,-0.0545 c -27.325857,-0.0421 -36.073764,-0.23858 -38.338136,-0.86107 z"
     style="fill:#ffffff;stroke-width:0.610105" />
  <path
     id="path16"
     d="M 85.313487,222.76105 C 64.816631,219.04196 47.227241,205.6003 38.451681,186.94964 c -9.284633,-19.73258 -7.692279,-43.10718 4.187653,-61.47167 3.712434,-5.73884 11.563405,-13.8311 17.197188,-17.72573 31.982481,-22.109476 75.597448,-10.828699 93.144878,24.09142 4.83306,9.61798 6.93087,19.9222 6.3805,31.34024 -0.42391,8.79427 -2.09292,15.68654 -5.58247,23.05304 -3.61505,7.63145 -6.4674,11.79954 -12.11117,17.69788 -7.23581,7.5622 -16.54099,13.48296 -26.05339,16.57742 -9.23628,3.00464 -21.230092,3.89476 -30.301383,2.24881 z"
     style="fill:#ffffff;stroke-width:0.610105" />
  <path
     id="path18"
     d="m 312.67874,255.30207 c -37.72636,-2.11253 -72.17523,-24.24733 -91.06699,-58.51425 -5.25117,-9.52486 -10.11321,-24.07688 -12.11807,-36.26923 -1.0371,-6.30706 -1.04849,-26.53394 -0.0186,-32.94566 5.07155,-31.572027 22.12198,-58.447315 48.24163,-76.039596 28.73957,-19.356867 64.4557,-24.360464 97.05922,-13.597361 7.71321,2.546292 20.51002,8.752904 26.99274,13.091813 40.15091,26.87316 58.44674,75.806914 45.84192,122.608054 -8.38516,31.13369 -31.12417,57.8999 -60.91132,71.69902 -16.95122,7.85278 -34.37366,11.06736 -54.02058,9.96721 z"
     style="fill:#ffffff;stroke-width:0.610105" />
  <path
     id="path20"
     d="m 533.23165,222.72435 c -12.77576,-2.38795 -23.39343,-7.75028 -32.56762,-16.4479 -13.20499,-12.51902 -20.20645,-28.54237 -20.20645,-46.24388 0,-46.30511 48.26564,-77.239512 90.12924,-57.76562 13.35804,6.21383 25.3621,18.254 31.33693,31.43122 6.02614,13.29036 7.25067,29.50875 3.27531,43.38003 -6.40222,22.3393 -23.41552,38.75605 -46.44662,44.81802 -6.39774,1.68394 -18.79065,2.08608 -25.52079,0.82813 z"
     style="fill:#ffffff;stroke-width:0.610105" />
  <path
     id="path22"
     d="m 541.49093,378.7836 c -4.59204,-28.77175 -18.2231,-55.72289 -39.06958,-77.2478 -10.03482,-10.3614 -17.95742,-16.74966 -29.7602,-23.99665 l -5.05097,-3.10132 2.9156,-2.59601 c 9.66032,-8.60142 22.8981,-14.09063 36.74972,-15.23875 9.25664,-0.76725 64.92495,-0.76157 73.61225,0.008 29.57055,2.61786 53.18947,24.39125 57.90854,53.3837 1.2756,7.83693 1.2611,43.53401 -0.0199,48.96718 -2.67283,11.33645 -11.73422,20.67749 -22.95572,23.66419 -2.65708,0.70721 -9.91077,0.87315 -38.42524,0.87902 l -35.14986,0.007 z"
     style="fill:#ffffff;stroke-width:0.610105" />
</svg>
