<?xml version="1.0" encoding="UTF-8" standalone="no"?>
<svg
   xmlns:dc="http://purl.org/dc/elements/1.1/"
   xmlns:cc="http://creativecommons.org/ns#"
   xmlns:rdf="http://www.w3.org/1999/02/22-rdf-syntax-ns#"
   xmlns:svg="http://www.w3.org/2000/svg"
   xmlns="http://www.w3.org/2000/svg"
   xmlns:sodipodi="http://sodipodi.sourceforge.net/DTD/sodipodi-0.dtd"
   xmlns:inkscape="http://www.inkscape.org/namespaces/inkscape"
   inkscape:version="1.0 (4035a4fb49, 2020-05-01)"
   sodipodi:docname="virus-solid.svg"
   id="svg4"
   version="1.1"
   viewBox="0 0 512 512"
   role="img"
   class="svg-inline--fa fa-virus fa-w-16"
   data-icon="virus"
   data-prefix="fas"
   focusable="false"
   aria-hidden="true">
  <metadata
     id="metadata10">
    <rdf:RDF>
      <cc:Work
         rdf:about="">
        <dc:format>image/svg+xml</dc:format>
        <dc:type
           rdf:resource="http://purl.org/dc/dcmitype/StillImage" />
      </cc:Work>
    </rdf:RDF>
  </metadata>
  <defs
     id="defs8" />
  <sodipodi:namedview
     inkscape:current-layer="svg4"
     inkscape:window-maximized="1"
     inkscape:window-y="-8"
     inkscape:window-x="1912"
     inkscape:cy="231.90588"
     inkscape:cx="256"
     inkscape:zoom="1.6601562"
     showgrid="false"
     id="namedview6"
     inkscape:window-height="1017"
     inkscape:window-width="1920"
     inkscape:pageshadow="2"
     inkscape:pageopacity="0"
     guidetolerance="10"
     gridtolerance="10"
     objecttolerance="10"
     borderopacity="1"
     bordercolor="#666666"
     pagecolor="#ffffff" />
  <path
     id="path2"
     d="M483.55,227.55H462c-50.68,0-76.07-61.27-40.23-97.11L437,115.19A28.44,28.44,0,0,0,396.8,75L381.56,90.22c-35.84,35.83-97.11,10.45-97.11-40.23V28.44a28.45,28.45,0,0,0-56.9,0V50c0,50.68-61.27,76.06-97.11,40.23L115.2,75A28.44,28.44,0,0,0,75,115.19l15.25,15.25c35.84,35.84,10.45,97.11-40.23,97.11H28.45a28.45,28.45,0,1,0,0,56.89H50c50.68,0,76.07,61.28,40.23,97.12L75,396.8A28.45,28.45,0,0,0,115.2,437l15.24-15.25c35.84-35.84,97.11-10.45,97.11,40.23v21.54a28.45,28.45,0,0,0,56.9,0V462c0-50.68,61.27-76.07,97.11-40.23L396.8,437A28.45,28.45,0,0,0,437,396.8l-15.25-15.24c-35.84-35.84-10.45-97.12,40.23-97.12h21.54a28.45,28.45,0,1,0,0-56.89ZM224,272a48,48,0,1,1,48-48A48,48,0,0,1,224,272Zm80,56a24,24,0,1,1,24-24A24,24,0,0,1,304,328Z"
     fill="currentColor" />
  <path
     id="path12"
     d="m 247.42367,510.22796 c -8.44136,-2.69849 -15.10597,-9.41078 -18.27604,-18.40678 -0.88233,-2.50386 -1.13304,-6.16075 -1.48665,-21.68471 -0.34162,-14.99792 -0.63513,-19.44351 -1.49131,-22.58823 -5.50715,-20.22755 -19.56565,-34.38523 -40.47385,-40.7594 -4.76202,-1.45176 -6.25485,-1.61656 -14.92876,-1.64794 -10.50798,-0.038 -14.07567,0.59484 -22.1701,3.93271 -7.45115,3.07261 -13.72894,7.84564 -25.66867,19.51599 -6.16796,6.02881 -12.30177,11.51617 -13.63069,12.19413 -4.72029,2.40812 -9.1201,3.30226 -14.986808,3.04567 -4.820143,-0.21082 -6.086699,-0.5167 -10.171242,-2.45644 -6.210325,-2.94927 -10.563241,-7.30219 -13.512511,-13.51251 -1.939739,-4.08454 -2.24562,-5.3511 -2.456438,-10.17124 -0.256692,-5.86901 0.636591,-10.26176 3.049912,-14.99814 0.680298,-1.33515 6.150987,-7.44213 12.157091,-13.57107 14.415781,-14.71062 18.890606,-21.46477 22.148736,-33.43059 1.81373,-6.66109 2.09468,-17.94389 0.62246,-24.99765 -3.99181,-19.12573 -16.412451,-34.80394 -33.152755,-41.84772 -9.037041,-3.8025 -10.721804,-4.04359 -31.433692,-4.49816 -17.287586,-0.37942 -19.287245,-0.53115 -22.49692,-1.70699 C 11.326291,279.80371 6.1403624,275.05381 2.4764821,267.44471 0.36564046,263.06094 0.30117647,262.72178 0.30117647,256 c 0,-6.73076 0.0619063,-7.05508 2.18459403,-11.44471 2.7044211,-5.59263 5.7417515,-9.14183 10.3998435,-12.1525 6.223751,-4.0226 7.519162,-4.23608 28.676739,-4.72587 15.265127,-0.35337 19.739467,-0.64781 22.889412,-1.50623 20.104565,-5.47891 34.425687,-19.68252 40.739085,-40.40481 1.47503,-4.84142 1.63676,-6.29551 1.66825,-14.99882 0.038,-10.50798 -0.59484,-14.07567 -3.93271,-22.1701 -3.129771,-7.58977 -7.878174,-13.8318 -19.606546,-25.77384 C 71.199991,110.48247 69.376193,107.75898 68.078002,100.06244 65.01847,81.923476 81.923476,65.01847 100.06244,68.078002 c 7.65149,1.290589 10.3436,3.09266 22.78061,15.249076 14.87697,14.541324 21.51592,18.944992 33.46754,22.199262 6.66109,1.81373 17.94389,2.09468 24.99765,0.62246 18.30665,-3.82085 33.31048,-15.239857 40.93679,-31.155859 4.51228,-9.417089 5.43095,-15.102693 5.45029,-33.731765 0.0167,-16.05294 0.61619,-20.54853 3.42999,-25.720126 10.70849,-19.6815632 37.93835,-20.1737259 49.23938,-0.889971 3.25794,5.55926 3.48907,7.149018 3.95637,27.21245 0.46178,19.826098 0.68346,21.490761 3.96725,29.791618 4.06475,10.274954 13.22247,21.000186 23.05728,27.003958 15.8996,9.706095 35.42682,11.174315 52.69401,3.961985 7.02121,-2.93269 13.3597,-7.801623 25.11735,-19.294012 12.43701,-12.156416 15.12912,-13.958487 22.78061,-15.249076 18.09401,-3.051948 35.03639,13.890427 31.98444,31.984438 -1.29059,7.65149 -3.09266,10.3436 -15.24908,22.78061 -14.52584,14.86112 -18.92975,21.4943 -22.21983,33.46754 -1.81405,6.60165 -2.0858,17.8879 -0.60189,24.99765 3.82085,18.30665 15.23986,33.31048 31.15586,40.93679 9.4302,4.51857 15.11326,5.43397 33.77172,5.43983 7.97304,0.002 16.10481,0.29833 18.07059,0.65738 8.9367,1.63229 16.56268,7.56444 20.60359,16.02724 2.19006,4.58659 2.24586,4.87559 2.24586,11.63052 0,6.72178 -0.0645,7.06094 -2.1753,11.44471 -3.67104,7.62397 -8.80999,12.32874 -16.54627,15.14833 -3.2517,1.18513 -5.23535,1.3372 -22.5396,1.72801 -20.09639,0.45387 -21.89304,0.69354 -30.61975,4.08477 -10.47201,4.06945 -21.26606,13.60124 -27.25412,24.067 -3.09847,5.41544 -6.28018,14.48963 -7.23299,20.62836 -0.91846,5.91746 -0.35547,17.15906 1.13125,22.58823 3.29798,12.04356 7.57052,18.48926 22.12756,33.3823 6.02881,6.16796 11.51617,12.30177 12.19413,13.63069 2.40812,4.72029 3.30226,9.1201 3.04567,14.98681 -0.21082,4.82014 -0.5167,6.0867 -2.45644,10.17124 -2.94927,6.21032 -7.30219,10.56324 -13.51251,13.51251 -4.08454,1.93974 -5.3511,2.24562 -10.17124,2.45644 -5.86671,0.25659 -10.26652,-0.63755 -14.98681,-3.04567 -1.32892,-0.67796 -7.46273,-6.16532 -13.63069,-12.19413 -14.88801,-14.55212 -21.30859,-18.80927 -33.3823,-22.13404 -6.5974,-1.81674 -17.88169,-2.08957 -24.99765,-0.60436 -19.12573,3.99181 -34.80394,16.41245 -41.84772,33.15276 -3.78839,9.0035 -4.04149,10.7553 -4.49811,31.13251 -0.38024,16.96839 -0.53615,18.99452 -1.70802,22.19574 -3.29759,9.00822 -10.11164,15.58419 -18.76606,18.11043 -4.40259,1.28512 -12.06956,1.18505 -16.44818,-0.21468 z M 314.06029,325.9926 c 5.36375,-2.50999 8.97945,-6.02121 11.54417,-11.21057 7.16309,-14.49352 -0.8868,-31.12046 -16.68222,-34.45694 -19.2717,-4.07079 -35.09229,15.68813 -27.0646,33.80197 2.65883,5.99943 8.96714,11.40088 15.52246,13.291 4.78084,1.37847 12.00819,0.76084 16.68019,-1.42546 z m -77.63676,-55.24816 c 5.35325,-1.42966 13.945,-5.81902 18.20606,-9.30113 7.37705,-6.02846 13.63088,-15.79481 16.21415,-25.32096 1.63429,-6.02665 1.50143,-18.71901 -0.2604,-24.87668 -4.55724,-15.92781 -15.82709,-27.72747 -31.5403,-33.02305 -10.4081,-3.50768 -23.55863,-3.02287 -33.74132,1.24392 -11.44591,4.7961 -21.41379,14.88529 -26.09965,26.41726 -4.00881,9.86575 -4.39729,23.01771 -0.97945,33.15924 5.863,17.39686 19.69273,29.30282 37.9202,32.64533 4.05333,0.74329 16.05459,0.18471 20.28071,-0.94393 z"
     style="fill:#ff6600;stroke-width:0.602353" />
</svg>
